<?xml version="1.0" encoding="UTF-8"?>
<!DOCTYPE svg PUBLIC "-//W3C//DTD SVG 1.1//EN" "http://www.w3.org/Graphics/SVG/1.1/DTD/svg11.dtd">
<!-- Creator: CorelDRAW X7 -->
<svg xmlns="http://www.w3.org/2000/svg" xml:space="preserve" width="5.95579in" height="4.44593in" version="1.1" style="shape-rendering:geometricPrecision; text-rendering:geometricPrecision; image-rendering:optimizeQuality; fill-rule:evenodd; clip-rule:evenodd"
viewBox="0 0 1138 849"
 xmlns:xlink="http://www.w3.org/1999/xlink">
 <defs>
  <style type="text/css">
   <![CDATA[
    .str1 {stroke:#B3B3B3;stroke-width:0.573118}
    .str0 {stroke:white;stroke-width:0.573118}
    .fil1 {fill:none}
    .fil0 {fill:#000050}
    .fil3 {fill:white}
    .fil2 {fill:url(#id3)}
   ]]>
  </style>
   <clipPath id="id0">
    <path d="M75 0l821 0c41,0 75,34 75,75l0 545c0,41 -34,75 -75,75l-821 0c-41,0 -75,-34 -75,-75l0 -545c0,-41 34,-75 75,-75z"/>
   </clipPath>
    <clipPath id="id1">
     <path d="M75 0l821 0c41,0 75,34 75,75l0 545c0,41 -34,75 -75,75l-821 0c-41,0 -75,-34 -75,-75l0 -545c0,-41 34,-75 75,-75z"/>
    </clipPath>
    <clipPath id="id2">
     <path d="M75 0l821 0c41,0 75,34 75,75l0 545c0,41 -34,75 -75,75l-821 0c-41,0 -75,-34 -75,-75l0 -545c0,-41 34,-75 75,-75z"/>
    </clipPath>
  <linearGradient id="id3" gradientUnits="userSpaceOnUse" x1="513.702" y1="589.45" x2="722.75" y2="788.191">
   <stop offset="0" style="stop-opacity:1; stop-color:#000050"/>
   <stop offset="1" style="stop-opacity:1; stop-color:blue"/>
  </linearGradient>
 </defs>
 <g id="Layer_x0020_1">
  <metadata id="CorelCorpID_0Corel-Layer"/>
  <path class="fil0" d="M75 0l821 0c41,0 75,34 75,75l0 545c0,41 -34,75 -75,75l-821 0c-41,0 -75,-34 -75,-75l0 -545c0,-41 34,-75 75,-75z"/>
  <g style="clip-path:url(#id0)">
   <g id="_1668679124864">
   </g>
   <g style="clip-path:url(#id1)">
    <image x="-132" y="0" width="1236" height="695" xlink:href="card2_Images\card2_ImgID1.png"/>
   </g>
   <g style="clip-path:url(#id2)">
   </g>
  </g>
  <path class="fil1" d="M75 0l821 0c41,0 75,34 75,75l0 545c0,41 -34,75 -75,75l-821 0c-41,0 -75,-34 -75,-75l0 -545c0,-41 34,-75 75,-75z"/>
  <rect class="fil2 str0" x="151" y="529" width="934" height="320" rx="163" ry="69"/>
  <circle class="fil3 str1" cx="1065" cy="536" r="73"/>
 </g>
</svg>
